<svg width="58" height="58" viewBox="0 0 58 58" fill="none" xmlns="http://www.w3.org/2000/svg">
<rect x="2" y="2" width="54" height="54" rx="17" stroke="#FF623B" stroke-width="3"/>
<path d="M16.6 24.4L20.2 28H8V30H20.2L16.6 33.5L18.1 34.9L24 29L18.1 23L16.6 24.4Z" fill="#FF623B"/>
<path d="M43.6538 33.0324V24.3051H45.7632V31.3193H49.3938V33.0324H43.6538Z" fill="#FF623B"/>
<path d="M37.51 29.896H39.2145L39.9389 30.8207L40.8892 31.9116L42.3509 33.7142H40.4418L39.419 32.4912L38.8139 31.6219L37.51 29.896ZM42.4105 28.6687C42.4105 29.629 42.2259 30.4429 41.8565 31.1105C41.4872 31.7781 40.9872 32.2852 40.3565 32.6318C39.7287 32.9784 39.0242 33.1517 38.2429 33.1517C37.4588 33.1517 36.7529 32.977 36.125 32.6276C35.4972 32.2781 34.9986 31.771 34.6293 31.1062C34.2628 30.4386 34.0796 29.6261 34.0796 28.6687C34.0796 27.7085 34.2628 26.8946 34.6293 26.227C34.9986 25.5594 35.4972 25.0523 36.125 24.7057C36.7529 24.3591 37.4588 24.1858 38.2429 24.1858C39.0242 24.1858 39.7287 24.3591 40.3565 24.7057C40.9872 25.0523 41.4872 25.5594 41.8565 26.227C42.2259 26.8946 42.4105 27.7085 42.4105 28.6687ZM40.2543 28.6687C40.2543 28.1006 40.1733 27.6205 40.0114 27.2284C39.8523 26.8364 39.6222 26.5395 39.321 26.3378C39.0227 26.1361 38.6634 26.0352 38.2429 26.0352C37.8253 26.0352 37.4659 26.1361 37.1648 26.3378C36.8637 26.5395 36.6321 26.8364 36.4702 27.2284C36.3111 27.6205 36.2315 28.1006 36.2315 28.6687C36.2315 29.2369 36.3111 29.717 36.4702 30.1091C36.6321 30.5011 36.8637 30.798 37.1648 30.9997C37.4659 31.2014 37.8253 31.3023 38.2429 31.3023C38.6634 31.3023 39.0227 31.2014 39.321 30.9997C39.6222 30.798 39.8523 30.5011 40.0114 30.1091C40.1733 29.717 40.2543 29.2369 40.2543 28.6687Z" fill="#FF623B"/>
<path d="M30.9688 26.9216C30.9403 26.6091 30.8139 26.3662 30.5895 26.1929C30.3679 26.0168 30.0511 25.9287 29.6392 25.9287C29.3665 25.9287 29.1392 25.9642 28.9574 26.0352C28.7756 26.1062 28.6392 26.2043 28.5483 26.3293C28.4574 26.4514 28.4105 26.592 28.4077 26.7511C28.402 26.8818 28.4276 26.9969 28.4844 27.0963C28.544 27.1957 28.6293 27.2838 28.7401 27.3605C28.8537 27.4344 28.9901 27.4997 29.1491 27.5565C29.3082 27.6134 29.4872 27.6631 29.6861 27.7057L30.4361 27.8761C30.8679 27.9699 31.2486 28.0949 31.5781 28.2511C31.9105 28.4074 32.1889 28.5935 32.4134 28.8094C32.6406 29.0253 32.8125 29.2739 32.929 29.5551C33.0455 29.8364 33.1051 30.1517 33.108 30.5011C33.1051 31.0523 32.9659 31.5253 32.6903 31.9202C32.4148 32.3151 32.0185 32.6176 31.5014 32.8278C30.9872 33.0381 30.3665 33.1432 29.6392 33.1432C28.9091 33.1432 28.2727 33.0338 27.7301 32.8151C27.1875 32.5963 26.7656 32.2639 26.4645 31.8179C26.1634 31.3719 26.0085 30.808 26 30.1261H28.0199C28.0369 30.4074 28.1122 30.6418 28.2457 30.8293C28.3793 31.0168 28.5625 31.1588 28.7955 31.2554C29.0312 31.352 29.304 31.4003 29.6136 31.4003C29.8977 31.4003 30.1392 31.3619 30.3381 31.2852C30.5398 31.2085 30.6946 31.102 30.8026 30.9656C30.9105 30.8293 30.9659 30.673 30.9688 30.4969C30.9659 30.3321 30.9148 30.1915 30.8153 30.075C30.7159 29.9557 30.5625 29.8534 30.3551 29.7682C30.1506 29.6801 29.8892 29.5991 29.571 29.5253L28.6591 29.3122C27.9034 29.1389 27.3082 28.8591 26.8736 28.4727C26.4389 28.0835 26.223 27.558 26.2259 26.896C26.223 26.3562 26.3679 25.8832 26.6605 25.477C26.9531 25.0707 27.358 24.754 27.875 24.5267C28.392 24.2994 28.9815 24.1858 29.6435 24.1858C30.3196 24.1858 30.9062 24.3009 31.4034 24.531C31.9034 24.7582 32.2912 25.0778 32.5668 25.4898C32.8423 25.9017 32.983 26.379 32.9886 26.9216H30.9688Z" fill="#FF623B"/>
</svg>
